# xmcd
#
# Track frame offsets:
#	150
#	27241
#	58701
#	94131
#	132178
#	166035
#	190309
#	207705
#	226944
#	250739
#	279218
#	313542
#
# Disc length: 4415 seconds
#
# Revision: 2
# Processed by: cddbd v1.5.2PL0 Copyright (c) Steve Scherf et al.
# Submitted via: EZCDAudioConverter 1.3.4.1
#
DISCID=9f113d0c
DTITLE=Belinda Carlisle - Heaven On Earth 2/2
DYEAR=1987
DGENRE=
TTITLE0=Heaven Is A Place On Earth [Heavenly Version]
TTITLE1=I Feel Free [Extended Version]
TTITLE2=Circle In The Sand [Beach Party Mix]
TTITLE3=World Without You [Extended Worldwide Mix]
TTITLE4=I Get Weak [12'' Version]
TTITLE5=Heaven Is A Place On Earth [Down To Earth Dub]
TTITLE6=Circle In The Sand [Seaside Mood Groove Mix]
TTITLE7=World Without You [Panavision Mix]
TTITLE8=Circle In The Sand [Sandblast Multi-Mix]
TTITLE9=I Get Weak [Romantic Mix]
TTITLE10=I Feel Free [Dub Version]
TTITLE11=Heaven Is A Place On Earth [Acappella]
EXTD=
EXTT0=
EXTT1=
EXTT2=
EXTT3=
EXTT4=
EXTT5=
EXTT6=
EXTT7=
EXTT8=
EXTT9=
EXTT10=
EXTT11=
PLAYORDER=
